<svg width="41" height="41" viewBox="0 0 41 41" fill="none" xmlns="http://www.w3.org/2000/svg">
<path d="M39.6733 40.5549H0.400741C0.180333 40.5549 0 40.3475 0 40.0941V36.4073C0 36.1538 0.180333 35.9464 0.400741 35.9464H39.6733C39.8937 35.9464 40.0741 36.1538 40.0741 36.4073V40.0941C40.0741 40.3475 39.8937 40.5549 39.6733 40.5549ZM39.6733 4.60849H0.400741C0.180333 4.60849 0 4.40111 0 4.14764V0.460827C0 0.207359 0.180333 -2.28882e-05 0.400741 -2.28882e-05H39.6733C39.8937 -2.28882e-05 40.0741 0.207359 40.0741 0.460827V4.14764C40.0741 4.40111 39.8937 4.60849 39.6733 4.60849ZM39.6733 22.5817H0.400741C0.180333 22.5817 0 22.3743 0 22.1209V18.434C0 18.1806 0.180333 17.9732 0.400741 17.9732H39.6733C39.8937 17.9732 40.0741 18.1806 40.0741 18.434V22.1209C40.0741 22.3743 39.8937 22.5817 39.6733 22.5817Z" fill="black"/>
</svg>
